PathFileType	4	(X/Y/Z)	Gait_latera_markers.trc
DataRate	CameraRate	NumFrames	NumMarkers	Units	OrigDataRate	OrigDataStartFrame	OrigNumFrames
100	100	9	38	m	100	49	96
Frame#	Time	RASI			RPSI			LPSI			LASI			RTROCH			RTHI			RTHI2			RTHI3			RTHI4			RKNE			RKNEM			RTIB			RTIB2			RTIB3			RTIB4			RANK			RANKM			RHEE			RTOE			RTOEL			RTOEM			LTROCH			LTHI			LTHI2			LTHI3			LTHI4			LKNE			LKNEM			LTIB			LTIB2			LTIB3			LTIB4			LANK			LANKM			LHEE			LTOE			LTOEL			LTOEM
		X1	Y1	Z1	X2	Y2	Z2	X3	Y3	Z3	X4	Y4	Z4	X5	Y5	Z5	X6	Y6	Z6	X7	Y7	Z7	X8	Y8	Z8	X9	Y9	Z9	X10	Y10	Z10	X11	Y11	Z11	X12	Y12	Z12	X13	Y13	Z13	X14	Y14	Z14	X15	Y15	Z15	X16	Y16	Z16	X17	Y17	Z17	X18	Y18	Z18	X19	Y19	Z19	X20	Y20	Z20	X21	Y21	Z21	X22	Y22	Z22	X23	Y23	Z23	X24	Y24	Z24	X25	Y25	Z25	X26	Y26	Z26	X27	Y27	Z27	X28	Y28	Z28	X29	Y29	Z29	X30	Y30	Z30	X31	Y31	Z31	X32	Y32	Z32	X33	Y33	Z33	X34	Y34	Z34	X35	Y35	Z35	X36	Y36	Z36	X37	Y37	Z37	X38	Y38	Z38

49	0.480000	-0.305972	0.979679	-0.370347	-0.245936	1.009137	-0.557527	-0.150389	0.998619	-0.551950	-0.080723	0.981850	-0.365368	-0.368065	0.902625	-0.429597	-0.386644	0.785195	-0.403927	-0.384805	0.811310	-0.343260	-0.391689	0.739575	-0.301716	-0.393591	0.708680	-0.356980	-0.392600	0.571931	-0.293790	-0.280401	0.578365	-0.259267	-0.401095	0.458416	-0.352723	-0.380992	0.427056	-0.301278	-0.371061	0.354315	-0.344196	-0.389500	0.389365	-0.395925	-0.314501	0.211610	-0.508111	-0.255694	0.199133	-0.455562	-0.251484	0.188861	-0.566823	-0.356001	0.083840	-0.383118	-0.386918	0.088151	-0.456697	-0.296421	0.066638	-0.389236	-0.033019	0.908057	-0.445010	-0.035780	0.701778	-0.424327	-0.043243	0.701055	-0.362415	-0.058460	0.619846	-0.367833	-0.052891	0.615455	-0.430607	-0.073401	0.528807	-0.413320	-0.176713	0.549646	-0.396551	-0.070312	0.307806	-0.463817	-0.087837	0.311075	-0.401808	-0.102907	0.224845	-0.413511	-0.085702	0.226956	-0.473366	-0.119029	0.095373	-0.478379	-0.189206	0.120406	-0.438452	-0.176089	0.056962	-0.528120	-0.106343	0.059561	-0.300277	-0.065045	0.044022	-0.357585	-0.161870	0.052744	-0.309073
50	0.490000	-0.305641	0.979808	-0.359229	-0.246232	1.008734	-0.546632	-0.150775	0.998390	-0.541196	-0.079963	0.981330	-0.355111	-0.367863	0.902903	-0.417747	-0.386774	0.785775	-0.390632	-0.384714	0.812582	-0.330659	-0.391355	0.741334	-0.287689	-0.393532	0.709722	-0.342485	-0.392031	0.573571	-0.278319	-0.280065	0.580129	-0.245226	-0.400694	0.456466	-0.333090	-0.384024	0.429776	-0.278883	-0.371099	0.352901	-0.319191	-0.389858	0.385100	-0.372796	-0.315702	0.201211	-0.476058	-0.256703	0.191692	-0.422986	-0.252998	0.174667	-0.533733	-0.356563	0.081244	-0.343461	-0.387909	0.081027	-0.416802	-0.297540	0.063367	-0.348767	-0.033143	0.907847	-0.435604	-0.035847	0.701730	-0.417242	-0.044063	0.700565	-0.355004	-0.059910	0.619260	-0.361234	-0.053331	0.615657	-0.425195	-0.073806	0.528754	-0.409592	-0.178965	0.549091	-0.395344	-0.070663	0.308040	-0.461903	-0.087903	0.310881	-0.399969	-0.103063	0.224724	-0.412165	-0.086119	0.227284	-0.472184	-0.119345	0.095645	-0.478100	-0.189344	0.120705	-0.438331	-0.175558	0.057269	-0.528344	-0.106339	0.059297	-0.300094	-0.065126	0.043983	-0.357477	-0.161878	0.052598	-0.308898
51	0.500000	-0.305307	0.979405	-0.348330	-0.246566	1.008265	-0.535654	-0.151103	0.997945	-0.530374	-0.079516	0.980540	-0.344712	-0.367883	0.902524	-0.406486	-0.387004	0.785922	-0.377673	-0.384467	0.813440	-0.317940	-0.391033	0.742648	-0.274400	-0.393565	0.710458	-0.328801	-0.391088	0.574641	-0.263225	-0.279569	0.581218	-0.231818	-0.400229	0.454444	-0.314405	-0.383420	0.430981	-0.258266	-0.371157	0.351121	-0.294945	-0.389587	0.380677	-0.350045	-0.316673	0.190732	-0.443111	-0.258161	0.184309	-0.389828	-0.254590	0.160789	-0.499741	-0.357227	0.079268	-0.303274	-0.389034	0.074315	-0.376292	-0.298696	0.062055	-0.306809	-0.033370	0.907549	-0.426169	-0.036090	0.701810	-0.410425	-0.044771	0.699472	-0.347853	-0.060851	0.617955	-0.355732	-0.053685	0.615750	-0.419425	-0.074032	0.528406	-0.405357	-0.179551	0.549256	-0.391786	-0.071110	0.308432	-0.460225	-0.088406	0.310668	-0.398092	-0.103263	0.224673	-0.410992	-0.086315	0.227629	-0.470831	-0.119482	0.095885	-0.477650	-0.189762	0.120674	-0.437985	-0.176523	0.056581	-0.527932	-0.106385	0.059060	-0.299883	-0.065174	0.043988	-0.357397	-0.161885	0.052459	-0.308752
52	0.510000	-0.305077	0.979021	-0.337200	-0.246778	1.007729	-0.524598	-0.151627	0.997603	-0.519683	-0.078906	0.979634	-0.334287	-0.367866	0.901954	-0.395273	-0.387122	0.785993	-0.365079	-0.384186	0.813843	-0.305352	-0.390541	0.743419	-0.261585	-0.393414	0.710822	-0.315558	-0.390074	0.575165	-0.249259	-0.278871	0.581869	-0.219106	-0.399368	0.451842	-0.296269	-0.383164	0.431564	-0.238740	-0.370993	0.350220	-0.270494	-0.389114	0.376576	-0.327786	-0.316802	0.179817	-0.409240	-0.259227	0.176735	-0.356136	-0.256034	0.146836	-0.464652	-0.357913	0.077406	-0.263003	-0.390297	0.068217	-0.335449	-0.299575	0.060031	-0.265501	-0.033559	0.907250	-0.417290	-0.036165	0.701415	-0.402889	-0.045465	0.698489	-0.340757	-0.062044	0.617353	-0.349293	-0.054027	0.615541	-0.413192	-0.074428	0.528159	-0.400995	-0.180018	0.549105	-0.387681	-0.071564	0.308728	-0.458186	-0.088525	0.310536	-0.396120	-0.103344	0.224635	-0.409707	-0.086524	0.228067	-0.469407	-0.119738	0.096126	-0.477307	-0.190145	0.120672	-0.437727	-0.176511	0.056725	-0.527884	-0.106437	0.058683	-0.300007	-0.065261	0.044040	-0.357322	-0.161541	0.052750	-0.308484
53	0.520000	-0.304949	0.978328	-0.326250	-0.247115	1.007114	-0.513494	-0.151805	0.996977	-0.508615	-0.078733	0.978883	-0.323751	-0.367941	0.901116	-0.384294	-0.387282	0.785600	-0.352891	-0.384070	0.813828	-0.293561	-0.390079	0.743628	-0.249252	-0.393024	0.710736	-0.302781	-0.388762	0.575109	-0.235979	-0.277931	0.582086	-0.206819	-0.398619	0.449109	-0.278964	-0.382785	0.431880	-0.220005	-0.371315	0.348943	-0.247001	-0.388959	0.371992	-0.306038	-0.319213	0.170093	-0.375465	-0.260366	0.169591	-0.322050	-0.257514	0.133122	-0.428598	-0.358728	0.076578	-0.222433	-0.391530	0.062807	-0.293959	-0.300410	0.058481	-0.224461	-0.033848	0.906547	-0.407306	-0.036318	0.700972	-0.395143	-0.046062	0.697014	-0.333614	-0.063236	0.616484	-0.342989	-0.054364	0.615366	-0.406960	-0.075258	0.528111	-0.396258	-0.180600	0.548782	-0.383613	-0.071815	0.309033	-0.455795	-0.089054	0.310215	-0.393770	-0.103473	0.224579	-0.408162	-0.086712	0.228442	-0.467803	-0.119961	0.096393	-0.476945	-0.190956	0.120655	-0.438020	-0.176530	0.056827	-0.527762	-0.106539	0.058510	-0.299892	-0.065316	0.044056	-0.357262	-0.161571	0.052635	-0.308361
54	0.530000	-0.304792	0.977353	-0.315109	-0.247440	1.006234	-0.502251	-0.152207	0.996267	-0.497626	-0.078813	0.977826	-0.313068	-0.368045	0.900175	-0.373314	-0.387265	0.784924	-0.341120	-0.383833	0.813276	-0.281423	-0.389381	0.743178	-0.237190	-0.392429	0.710030	-0.290527	-0.387379	0.574560	-0.223860	-0.276890	0.581883	-0.195041	-0.397228	0.445778	-0.261999	-0.382071	0.431829	-0.202057	-0.371554	0.347449	-0.224275	-0.388389	0.367190	-0.284665	-0.320468	0.160075	-0.340731	-0.261397	0.162660	-0.287578	-0.258880	0.119021	-0.390921	-0.359489	0.076653	-0.181851	-0.392772	0.058557	-0.252058	-0.301331	0.058206	-0.183037	-0.033975	0.905741	-0.397162	-0.036339	0.700067	-0.387010	-0.046529	0.695905	-0.326086	-0.063854	0.615004	-0.337152	-0.054531	0.614947	-0.400270	-0.075229	0.527513	-0.391633	-0.181138	0.548293	-0.379361	-0.072370	0.309734	-0.454048	-0.089113	0.309959	-0.391421	-0.103700	0.224284	-0.406626	-0.086896	0.228771	-0.466169	-0.120083	0.096581	-0.476458	-0.191287	0.120529	-0.437647	-0.176531	0.056931	-0.527653	-0.106570	0.058328	-0.299769	-0.065325	0.044065	-0.357197	-0.161697	0.052361	-0.308643
55	0.540000	-0.304852	0.976244	-0.303859	-0.247520	1.005170	-0.490852	-0.152405	0.995296	-0.486564	-0.078789	0.976409	-0.302334	-0.368032	0.898870	-0.362224	-0.387168	0.784086	-0.329670	-0.383567	0.812451	-0.270115	-0.388767	0.742228	-0.225783	-0.391938	0.709088	-0.279192	-0.385601	0.573366	-0.212408	-0.275811	0.581547	-0.183910	-0.395635	0.442099	-0.245583	-0.381180	0.431480	-0.184907	-0.371397	0.345840	-0.201798	-0.387442	0.362211	-0.263478	-0.322663	0.151599	-0.306498	-0.262477	0.156242	-0.252947	-0.261655	0.105429	-0.352793	-0.360108	0.077816	-0.141647	-0.394067	0.055269	-0.210262	-0.301662	0.057986	-0.142066	-0.034085	0.904843	-0.386905	-0.036474	0.699621	-0.379273	-0.048105	0.694900	-0.318105	-0.064821	0.614500	-0.330211	-0.054617	0.614531	-0.393533	-0.075470	0.527010	-0.386668	-0.181412	0.547602	-0.374663	-0.072266	0.309431	-0.450783	-0.089569	0.309638	-0.388903	-0.103746	0.224101	-0.404925	-0.086994	0.229146	-0.464421	-0.120312	0.097067	-0.476217	-0.191647	0.120422	-0.437235	-0.176515	0.057250	-0.527726	-0.106615	0.058099	-0.299601	-0.065370	0.044091	-0.357131	-0.161697	0.052237	-0.308489
56	0.550000	-0.304872	0.975101	-0.292557	-0.248021	1.004033	-0.479702	-0.152629	0.994151	-0.475497	-0.078923	0.974868	-0.291270	-0.368395	0.897592	-0.351504	-0.387032	0.782787	-0.318627	-0.383330	0.810966	-0.258928	-0.388074	0.740615	-0.214809	-0.391320	0.707645	-0.268353	-0.383692	0.571451	-0.201833	-0.273948	0.580084	-0.173283	-0.393770	0.438039	-0.229540	-0.380006	0.430969	-0.168058	-0.371043	0.344295	-0.179701	-0.386558	0.357353	-0.242965	-0.323390	0.142809	-0.270900	-0.263781	0.150691	-0.218231	-0.263119	0.094317	-0.315198	-0.361127	0.079899	-0.102123	-0.395304	0.052861	-0.168607	-0.302447	0.060001	-0.101219	-0.034118	0.903737	-0.376418	-0.036910	0.698171	-0.370196	-0.048691	0.693551	-0.310252	-0.065964	0.613113	-0.323359	-0.054664	0.613985	-0.386550	-0.075876	0.526455	-0.381220	-0.181755	0.546923	-0.369831	-0.072469	0.309724	-0.448363	-0.089762	0.309021	-0.386127	-0.103862	0.223396	-0.402735	-0.087128	0.229487	-0.462675	-0.120426	0.097400	-0.475784	-0.192001	0.120276	-0.436805	-0.176693	0.056978	-0.527329	-0.106607	0.057822	-0.299450	-0.065372	0.044132	-0.357092	-0.161713	0.052019	-0.308285
57	0.560000	-0.305049	0.973471	-0.281294	-0.248194	1.002489	-0.468129	-0.152760	0.992937	-0.464355	-0.079381	0.973546	-0.279860	-0.368307	0.896224	-0.340012	-0.386642	0.781056	-0.307797	-0.382943	0.808956	-0.247692	-0.386780	0.738802	-0.203733	-0.390560	0.705817	-0.257939	-0.381351	0.569080	-0.192059	-0.271585	0.577856	-0.163738	-0.391701	0.433601	-0.213850	-0.378455	0.430067	-0.151969	-0.370518	0.342743	-0.158232	-0.385363	0.351986	-0.222093	-0.324796	0.135515	-0.236110	-0.265096	0.146171	-0.183451	-0.265042	0.083212	-0.276353	-0.361733	0.082942	-0.062838	-0.396516	0.051559	-0.127582	-0.303805	0.063536	-0.060994	-0.034053	0.902449	-0.365698	-0.036582	0.698538	-0.363388	-0.049365	0.691878	-0.302214	-0.066662	0.611778	-0.316482	-0.054885	0.613368	-0.379507	-0.075812	0.525629	-0.375933	-0.182230	0.546203	-0.364815	-0.072512	0.309440	-0.445100	-0.088438	0.309178	-0.382838	-0.105182	0.222321	-0.401124	-0.087385	0.229800	-0.460795	-0.120503	0.097789	-0.475307	-0.192323	0.120215	-0.436414	-0.176643	0.057335	-0.527345	-0.106586	0.057606	-0.299301	-0.065377	0.044119	-0.357010	-0.161772	0.051794	-0.308089
